<svg xmlns="http://www.w3.org/2000/svg" viewBox="0 0 1024 1024" width="1024" height="1024">
  <rect width="1024" height="1024" fill="#0A0A0A"/>
  <g transform="translate(95, 95) scale(1.0)">
    <path d="M677.599 344.673l294.845 122.129 122.126 294.845-122.126 294.843-294.845 122.13-294.845-122.13-122.129-294.843 122.129-294.845 294.845-122.129Zm0 64.944L428.676 512.724 325.569 761.647l103.107 248.923 248.923 103.11 248.923-103.11 103.108-248.923-103.108-248.923-248.923-103.107Z" fill="#E8110F" transform="translate(-260.625 -344.673)"/>
    <path d="M417.011 812.513V533.198l68.343-68.344h206.813l67.154 67.155v63.589h-80.823v-33.875l-27.931-27.931H528.143l-30.309 30.309V781.61l30.309 30.309h123.612l29.12-29.12v-64.778h-89.143v-68.937h167.589v163.429l-68.343 68.343H485.354l-68.343-68.343Z" fill="#E8110F" fill-rule="nonzero" transform="translate(-311.648 -413.56) scale(1.2388)"/>
  </g>
</svg>
